<?xml version="1.0" standalone="no"?>
<!DOCTYPE svg PUBLIC "-//W3C//DTD SVG 20010904//EN"
 "http://www.w3.org/TR/2001/REC-SVG-20010904/DTD/svg10.dtd">
<svg version="1.0" xmlns="http://www.w3.org/2000/svg"
 width="530.000000pt" height="505.000000pt" viewBox="0 0 530.000000 505.000000"
 preserveAspectRatio="xMidYMid meet">
<metadata>
Created by potrace 1.16, written by Peter Selinger 2001-2019
</metadata>
<g transform="translate(0.000000,505.000000) scale(0.100000,-0.100000)"
fill="#000000" stroke="none">
<path d="M1405 4969 c-368 -49 -710 -249 -982 -573 -199 -236 -327 -505 -379
-792 -25 -142 -26 -420 0 -529 64 -278 225 -492 450 -600 120 -57 183 -69 346
-69 128 1 155 4 235 28 337 102 596 397 677 771 7 34 12 123 12 205 0 132 -3
152 -28 225 -91 262 -278 382 -494 316 -121 -37 -222 -153 -251 -289 -12 -60
-15 -191 -3 -208 4 -6 21 -14 37 -18 29 -6 31 -5 59 58 61 140 171 193 316
150 74 -22 158 -106 189 -189 94 -252 -42 -536 -324 -676 -391 -193 -836 42
-955 506 -62 239 -20 586 101 827 118 236 326 451 540 556 325 160 754 146
1035 -33 281 -180 429 -517 411 -930 -16 -328 -75 -553 -338 -1282 -221 -612
-297 -865 -343 -1133 -48 -278 -57 -461 -31 -632 45 -302 220 -545 453 -629
95 -34 248 -34 344 -1 189 66 385 256 566 551 75 122 230 434 296 596 35 88
45 105 50 85 2 -14 14 -79 26 -145 86 -486 233 -823 418 -960 122 -91 269
-132 437 -122 365 22 690 243 973 664 l42 62 -57 44 -56 45 -74 -96 c-159
-210 -290 -333 -423 -396 -253 -122 -497 -38 -648 221 -164 280 -245 683 -259
1288 -18 815 99 1469 353 1978 117 232 263 377 383 377 75 0 182 -85 247 -196
14 -24 30 -44 34 -44 24 0 236 254 246 296 16 62 -71 176 -171 224 -72 36
-203 35 -293 -2 -101 -42 -169 -87 -264 -177 -224 -212 -437 -573 -586 -991
-128 -358 -205 -697 -287 -1260 -25 -173 -50 -335 -56 -360 -36 -166 -236
-658 -356 -874 -139 -252 -311 -456 -441 -524 -162 -86 -319 -27 -407 151 -61
124 -77 272 -55 498 33 333 111 610 355 1269 218 587 286 808 331 1067 24 137
28 185 28 358 0 223 -13 319 -66 484 -136 426 -476 731 -910 816 -99 20 -355
28 -453 14z"/>
</g>
</svg>
